<?xml version="1.0" encoding="utf-8"?>
<!-- Generator: Adobe Illustrator 16.0.0, SVG Export Plug-In . SVG Version: 6.00 Build 0)  -->
<!DOCTYPE svg PUBLIC "-//W3C//DTD SVG 1.1//EN" "http://www.w3.org/Graphics/SVG/1.1/DTD/svg11.dtd">
<svg version="1.1" xmlns="http://www.w3.org/2000/svg" xmlns:xlink="http://www.w3.org/1999/xlink" x="0px" y="0px" width="1024px"
	 height="1024px" viewBox="0 0 1024 1024" enable-background="new 0 0 1024 1024" xml:space="preserve">
<g id="Layer_1">
	<rect fill="#FDBA33" width="1024" height="1024"/>
</g>
<g id="Layer_2">
	<g>
		<path fill="#292C33" d="M398.519,205.403l-6.494,27.344c-25.752,0.459-44.492,5.928-56.226,16.406
			c-11.739,10.483-19.995,27.573-24.78,51.27l-25.977,120.654c-5.245,25.293-14.644,45.176-28.198,59.644
			c-13.56,14.473-32.642,24.214-57.251,29.224v1.367c17.544,3.878,30.473,10.596,38.794,20.166
			c8.315,9.57,12.476,22.446,12.476,38.623c0,7.52-1.255,17.55-3.76,30.078l-22.9,107.666c-2.51,12.529-3.76,22.329-3.76,29.395
			c0,17.09,4.043,29.79,12.134,38.11c8.085,8.315,21.362,12.7,39.819,13.159v27.344c-29.395-0.913-50.757-7.749-64.087-20.508
			c-13.33-12.764-19.995-31.445-19.995-56.055c0-10.254,1.479-21.191,4.443-32.813l22.9-110.4c1.821-7.29,2.734-15.263,2.734-23.926
			c0-33.267-21.191-49.902-63.574-49.902l5.469-23.584c27.114,0,47.905-6.206,62.378-18.628
			c14.468-12.417,24.321-30.703,29.565-54.858l27.002-126.807c6.836-33.037,19.482-56.792,37.939-71.265
			C335.628,212.64,362.742,205.403,398.519,205.403z"/>
		<path fill="#292C33" d="M651.106,407.249c0,68.359-9.399,130.396-28.198,186.108s-45.005,98.267-78.613,127.661
			c-33.613,29.395-72.861,44.092-117.749,44.092h-64.941L467.22,265.403h74.17c35.088,0,62.148,11.963,81.177,35.889
			C641.59,325.218,651.106,360.541,651.106,407.249z M433.382,732.981c34.404,0,65.225-13.213,92.456-39.648
			c27.227-26.431,48.989-65.737,65.283-117.92c16.289-52.177,24.438-108.232,24.438-168.164c0-72.685-26.318-109.033-78.955-109.033
			h-42.041l-92.627,434.766H433.382z"/>
		<path fill="#292C33" d="M624.788,815.853l6.152-27.344c25.518-0.459,44.204-5.811,56.055-16.064
			c11.846-10.254,20.278-27.573,25.293-51.953l25.635-120.313c5.239-25.517,14.639-45.513,28.198-59.985
			c13.555-14.468,32.642-24.097,57.251-28.882v-1.367c-17.549-3.872-30.42-10.596-38.623-20.166s-12.305-22.441-12.305-38.623
			c0-9.111,1.138-19.141,3.418-30.078l23.242-108.008c2.275-11.392,3.418-21.191,3.418-29.395c0-16.86-4.048-29.448-12.134-37.769
			c-8.091-8.315-21.362-12.7-39.819-13.159v-27.344c29.395,0.684,50.757,7.466,64.087,20.337
			c13.33,12.876,19.995,31.504,19.995,55.884c0,10.03-1.367,20.967-4.102,32.813l-23.242,110.742
			c-1.826,7.295-2.734,15.157-2.734,23.584c0,33.272,21.191,49.902,63.574,49.902l-5.469,23.584
			c-27.119,0-47.852,6.211-62.207,18.628c-14.355,12.422-24.155,30.82-29.395,55.2l-27.344,126.465
			c-6.836,33.267-19.541,57.134-38.11,71.606C687.049,808.616,660.105,815.853,624.788,815.853z"/>
	</g>
	<g>
	</g>
	<g>
	</g>
	<g>
	</g>
	<g>
	</g>
	<g>
	</g>
	<g>
	</g>
</g>
</svg>
